<mxfile host="app.diagrams.net" modified="2024-01-08T14:33:28.979Z" agent="Mozilla/5.0 (X11; Linux x86_64) AppleWebKit/537.36 (KHTML, like Gecko) Chrome/120.0.0.0 Safari/537.36" version="22.1.17" etag="3grFiVrC66P8TV4t1c47" type="github">
  <diagram name="Page-1" id="UTTT_YIFlHsfSk-9ZeUZ">
    <mxGraphModel>
      <root>
        <mxCell id="0" />
        <mxCell id="1" parent="0" />
      </root>
    </mxGraphModel>
  </diagram>
</mxfile>
